<?xml version="1.0" encoding="UTF-8" standalone="no"?>
<!-- Created with Inkscape (http://www.inkscape.org/) -->

<svg
   width="600"
   height="300"
   viewBox="0 0 158.75 79.374999"
   version="1.1"
   id="svg613"
   sodipodi:docname="logo.svg"
   xml:space="preserve"
   inkscape:export-filename="logo.png"
   inkscape:export-xdpi="300"
   inkscape:export-ydpi="300"
   inkscape:version="1.2.2 (732a01da63, 2022-12-09)"
   xmlns:inkscape="http://www.inkscape.org/namespaces/inkscape"
   xmlns:sodipodi="http://sodipodi.sourceforge.net/DTD/sodipodi-0.dtd"
   xmlns="http://www.w3.org/2000/svg"
   xmlns:svg="http://www.w3.org/2000/svg"><sodipodi:namedview
     id="namedview615"
     pagecolor="#ffffff"
     bordercolor="#111111"
     borderopacity="1"
     inkscape:showpageshadow="0"
     inkscape:pageopacity="0"
     inkscape:pagecheckerboard="1"
     inkscape:deskcolor="#d1d1d1"
     inkscape:document-units="mm"
     showgrid="false"
     inkscape:zoom="1.0129245"
     inkscape:cx="271.49111"
     inkscape:cy="255.20164"
     inkscape:window-width="1920"
     inkscape:window-height="991"
     inkscape:window-x="-9"
     inkscape:window-y="-9"
     inkscape:window-maximized="1"
     inkscape:current-layer="layer1" /><defs
     id="defs610" /><g
     inkscape:label="Lag 1"
     inkscape:groupmode="layer"
     id="layer1"><rect
       style="fill:#1e1f24;fill-opacity:1;stroke:#d40000;stroke-width:0.0747155"
       id="rect234"
       width="158.71309"
       height="79.300285"
       x="0.037357755"
       y="0.037357755"
       inkscape:label="BaseColorRect" /><text
       xml:space="preserve"
       style="font-style:normal;font-variant:normal;font-weight:normal;font-stretch:normal;font-size:13.3684px;font-family:sans-serif;-inkscape-font-specification:sans-serif;text-align:center;writing-mode:lr-tb;direction:rtl;text-anchor:middle;fill:#ff6b35;fill-opacity:1;stroke:#f6f8ff;stroke-width:2.91978;stroke-dasharray:none;stroke-opacity:1"
       x="115.33188"
       y="43.530914"
       id="text5004-9-60-1-1-0-4-6-4"
       inkscape:label="Text"><tspan
         sodipodi:role="line"
         id="tspan5002-2-7-3-7-1-7-0-6"
         style="font-style:normal;font-variant:normal;font-weight:normal;font-stretch:normal;font-size:13.3684px;font-family:'Titan One';-inkscape-font-specification:'Titan One, Normal';font-variant-ligatures:normal;font-variant-caps:normal;font-variant-numeric:normal;font-variant-east-asian:normal;text-align:start;writing-mode:lr-tb;text-anchor:start;fill:#f6f8ff;fill-opacity:1;stroke:#000000;stroke-width:2.91978;stroke-linecap:round;stroke-linejoin:round;stroke-dasharray:none;stroke-opacity:1;paint-order:stroke markers fill"
         x="115.33188"
         y="43.530914">PowerScraper</tspan></text><path
       style="fill:#ff6b35;stroke:#f6f8ff;stroke-width:0.0311207;stroke-opacity:1"
       d="m 116.47845,52.124463 c 0.0568,-0.07225 0.84781,-0.899213 1.78323,-1.864349 0.19968,-0.206024 0.39336,-0.4096 0.4304,-0.452391 0.0649,-0.07503 0.30785,-0.329103 1.04132,-1.089223 0.18994,-0.196838 0.5124,-0.532941 0.71659,-0.746896 0.20419,-0.213954 0.51238,-0.536053 0.68487,-0.715775 0.17249,-0.179721 0.64868,-0.676874 1.0582,-1.104783 0.40952,-0.427909 0.89471,-0.932064 1.07819,-1.120344 0.33952,-0.348391 0.4786,-0.508415 0.45826,-0.527276 -0.006,-0.0058 -0.34743,-0.01919 -0.75822,-0.0298 -0.41079,-0.01061 -0.95696,-0.02598 -1.21371,-0.03415 -0.25674,-0.0082 -0.75389,-0.02339 -1.10478,-0.03382 -0.35088,-0.01043 -0.64164,-0.02244 -0.64612,-0.02668 -0.004,-0.0042 0.41565,-0.384126 0.93362,-0.844185 0.51797,-0.460059 1.01179,-0.901702 1.09737,-0.981429 0.0856,-0.07973 0.22562,-0.204898 0.31121,-0.278159 0.14943,-0.127916 0.4875,-0.429613 0.79008,-0.705076 0.0789,-0.07187 0.34916,-0.309942 0.60048,-0.529051 0.25132,-0.219108 0.45788,-0.408882 0.45903,-0.42172 0.001,-0.01284 -0.51723,-0.02334 -1.15195,-0.02334 h -1.15404 l 0.74169,-0.565119 c 0.40793,-0.310816 0.93775,-0.714562 1.17738,-0.897213 0.23963,-0.182651 0.65975,-0.502383 0.93362,-0.710513 0.49194,-0.37387 0.82015,-0.624318 1.94504,-1.484184 0.31665,-0.242051 1.31095,-0.998578 2.20956,-1.681173 2.3645,-1.796101 2.41306,-1.833115 3.8366,-2.924333 0.71453,-0.547723 1.31996,-1.000389 1.34541,-1.005923 0.0254,-0.0055 0.0463,0.0021 0.0463,0.01693 0,0.01484 -0.30459,0.370149 -0.67687,0.789567 -0.37228,0.419417 -1.09,1.229664 -1.59493,1.800548 -0.50494,0.570885 -0.93223,1.053364 -0.94955,1.072175 -0.032,0.03472 -0.99159,1.117855 -2.04306,2.306009 -0.31809,0.359444 -0.72641,0.820664 -0.90737,1.024933 -0.18096,0.204269 -0.32294,0.381243 -0.3155,0.393275 0.007,0.01203 0.17822,0.02411 0.37952,0.02685 0.2013,0.0027 0.39401,0.01055 0.42824,0.01737 0.0342,0.0068 0.36334,0.0205 0.73134,0.03039 0.63418,0.01705 1.34678,0.04825 1.35969,0.05953 0.006,0.0053 -2.08703,1.691735 -2.41854,1.948727 -0.45792,0.354989 -1.60313,1.287698 -1.61313,1.313801 -0.0104,0.02721 0.35292,0.02321 2.04957,-0.0226 0.75294,-0.02033 1.21489,-0.02448 1.22811,-0.01104 0.006,0.0062 -0.19191,0.165388 -0.4401,0.353668 -0.2482,0.18828 -0.56122,0.426353 -0.6956,0.529051 -0.79596,0.608287 -3.25657,2.478084 -4.15366,3.156333 -0.37656,0.2847 -1.09196,0.828151 -1.58979,1.20767 -1.23064,0.938192 -1.63174,1.242641 -2.6115,1.982246 -0.46214,0.348864 -1.02931,0.778335 -1.26038,0.95438 -0.23107,0.176046 -0.67921,0.516689 -0.99586,0.756986 -0.31666,0.240296 -0.79098,0.601773 -1.05405,0.803281 -0.4698,0.359859 -0.63907,0.455777 -0.50617,0.286828 z m 5.73038,-4.908877 c 0.43647,-0.340751 1.08767,-0.849169 1.44711,-1.129819 0.63911,-0.499004 0.81567,-0.636411 1.79326,-1.395573 0.2632,-0.204397 0.6396,-0.498936 0.83644,-0.654534 0.19684,-0.155597 0.39461,-0.310462 0.4395,-0.344145 0.41947,-0.314791 0.67672,-0.528828 0.65743,-0.547 -0.0128,-0.01205 -0.33136,-0.03076 -0.70792,-0.04158 -0.37656,-0.01082 -0.74067,-0.02573 -0.80914,-0.03315 -0.10356,-0.01121 -1.33167,-0.05375 -1.73498,-0.06009 -0.0642,-10e-4 -0.1167,-0.0095 -0.1167,-0.01884 0,-0.0094 0.27577,-0.254425 0.61283,-0.544612 0.33706,-0.290186 0.66266,-0.571377 0.72356,-0.624869 0.57138,-0.501886 2.22416,-1.936182 2.44477,-2.121597 0.15405,-0.129469 0.28009,-0.248472 0.28009,-0.264452 0,-0.01598 -0.091,-0.03297 -0.20229,-0.03775 -0.37701,-0.01621 -1.69574,-0.05636 -1.75053,-0.05331 -0.0648,0.0036 -0.0673,-0.0063 -0.0154,-0.06089 0.0215,-0.02262 0.27705,-0.3001 0.56795,-0.616626 1.02665,-1.11709 2.05131,-2.229547 2.37938,-2.583245 0.50261,-0.541875 0.57173,-0.622437 0.55143,-0.642736 -0.0103,-0.01027 -0.0858,0.03648 -0.16775,0.103902 -0.082,0.06742 -0.42215,0.330929 -0.75592,0.585577 -0.33377,0.254647 -0.71889,0.5487 -0.85582,0.65345 -0.13693,0.10475 -0.39601,0.302869 -0.57573,0.440264 -0.17972,0.137396 -0.60685,0.464964 -0.94918,0.727929 -0.89246,0.685562 -1.99738,1.533138 -2.34573,1.799384 -0.16474,0.125915 -0.30368,0.239918 -0.30876,0.253339 -0.005,0.01342 0.23999,0.03323 0.54461,0.04403 0.30461,0.01079 0.67288,0.02621 0.81837,0.03425 0.14549,0.008 0.4228,0.01702 0.61625,0.01995 0.27889,0.0042 0.34334,0.01321 0.31121,0.04342 -0.0223,0.02095 -0.2926,0.253463 -0.60069,0.516693 -0.3081,0.263229 -1.10496,0.94753 -1.77081,1.520669 -0.66585,0.573138 -1.29604,1.114076 -1.40043,1.202084 -0.36052,0.303958 -0.40758,0.347463 -0.39208,0.362514 0.009,0.0083 0.31666,0.02462 0.68466,0.03625 0.368,0.01163 0.75312,0.02635 0.85582,0.03272 0.10269,0.0064 0.50182,0.02174 0.88694,0.03415 0.66255,0.02135 0.75441,0.02492 0.9802,0.03803 0.086,0.005 -0.0597,0.158427 -1.87502,1.973889 -1.08255,1.08266 -1.96829,1.979762 -1.96829,1.993559 0,0.03812 0.0207,0.02292 0.87138,-0.641244 z m 5.38388,-0.646583 c 0,-0.05643 0.0156,-0.07308 2.00599,-2.145153 0.22196,-0.231071 0.54439,-0.567174 0.7165,-0.746896 0.84246,-0.879691 1.11607,-1.165177 1.44676,-1.509559 0.19734,-0.20551 0.64589,-0.674426 0.99678,-1.042036 0.35088,-0.367611 0.97057,-1.01361 1.37708,-1.435555 0.40652,-0.421945 0.73912,-0.782783 0.73912,-0.801862 0,-0.02383 -0.15343,-0.03621 -0.49015,-0.03956 -0.26958,-0.0027 -0.52516,-0.0076 -0.56795,-0.01085 -0.0428,-0.0033 -0.48393,-0.01536 -0.9803,-0.02683 -0.49638,-0.01147 -1.08385,-0.02971 -1.3055,-0.04055 l -0.40299,-0.01971 0.0951,-0.08086 c 0.0523,-0.04447 0.53465,-0.472977 1.07185,-0.952235 0.5372,-0.479258 1.30594,-1.164873 1.70831,-1.523589 1.20722,-1.076247 1.32241,-1.180563 1.33385,-1.20795 0.006,-0.01445 -0.50863,-0.02196 -1.1437,-0.01668 -0.63507,0.0053 -1.15387,0.0026 -1.15287,-0.006 9.9e-4,-0.0086 0.15855,-0.130779 0.35012,-0.2716 0.19157,-0.140822 0.51637,-0.384631 0.72176,-0.541797 0.2054,-0.157166 0.5415,-0.4139 0.7469,-0.570519 0.2054,-0.156619 0.70251,-0.536002 1.10469,-0.843072 0.40219,-0.307071 0.91546,-0.698354 1.14061,-0.869518 0.37575,-0.285662 0.87048,-0.662189 1.72258,-1.311008 0.17972,-0.136846 1.18103,-0.898744 2.22513,-1.693106 1.0441,-0.794362 2.0314,-1.546592 2.19401,-1.671624 2.2563,-1.734933 2.28383,-1.752677 1.71941,-1.108284 -0.33728,0.385076 -1.14981,1.304697 -1.30219,1.473811 -0.054,0.05991 -0.43906,0.494041 -0.85574,0.964741 -0.41668,0.4707 -0.98096,1.107895 -1.25395,1.41599 -0.273,0.308094 -0.58155,0.656682 -0.68567,0.77464 -0.10413,0.117957 -0.2039,0.229991 -0.22171,0.248965 -0.0178,0.01897 -0.19988,0.224296 -0.40457,0.456273 -0.2047,0.231976 -0.61725,0.698449 -0.91679,1.036606 -0.29953,0.338157 -0.54928,0.628005 -0.55498,0.644107 -0.006,0.01679 0.11354,0.03073 0.28008,0.03269 0.15976,0.0019 0.33248,0.0069 0.38383,0.01124 0.0513,0.0043 0.35244,0.01715 0.66909,0.02855 1.36137,0.049 1.572,0.05753 1.57929,0.06395 0.006,0.0057 -1.68512,1.371825 -2.31433,1.869008 -1.04108,0.822624 -1.72079,1.374144 -1.72201,1.397251 -0.001,0.02624 0.24723,0.02308 2.51929,-0.032 0.52149,-0.01264 0.78291,-0.0087 0.76246,0.01144 -0.0171,0.01687 -0.15016,0.120977 -0.29565,0.231345 -0.14549,0.110369 -0.41157,0.312853 -0.59129,0.449967 -0.17972,0.137113 -0.58585,0.445608 -0.9025,0.685544 -0.68861,0.521776 -1.6648,1.264154 -2.11621,1.609346 -0.48613,0.371749 -0.88778,0.676542 -1.90127,1.442796 -0.50333,0.380547 -1.01317,0.767459 -1.13299,0.859804 -0.3669,0.282788 -2.44308,1.859956 -2.70757,2.056807 -0.25958,0.193197 -2.03986,1.545443 -3.03419,2.304681 -0.65409,0.499439 -0.65353,0.499058 -0.65353,0.448808 z m 5.16492,-4.518104 c 0.13397,-0.106977 0.53385,-0.418572 0.88861,-0.692434 0.35476,-0.273862 0.78685,-0.610688 0.9602,-0.748503 0.29697,-0.236091 1.14943,-0.901552 1.37332,-1.072056 0.29459,-0.224339 0.93109,-0.721383 1.13453,-0.885942 0.12764,-0.103246 0.29771,-0.236735 0.37794,-0.296643 0.53644,-0.400543 1.05389,-0.822447 1.03299,-0.842258 -0.0136,-0.01289 -0.39584,-0.03308 -0.84942,-0.04486 -0.45359,-0.01178 -0.85971,-0.02557 -0.9025,-0.03064 -0.0428,-0.0051 -0.42496,-0.01957 -0.84926,-0.03222 -0.4243,-0.01265 -0.7674,-0.03265 -0.76245,-0.04443 0.011,-0.02626 0.36413,-0.338213 1.08266,-0.956473 0.29953,-0.257739 0.8387,-0.724172 1.19814,-1.036518 0.76388,-0.66379 0.8675,-0.753524 1.38487,-1.199368 0.21396,-0.184373 0.39368,-0.347088 0.39938,-0.361589 0.006,-0.0145 -0.0853,-0.02897 -0.20228,-0.03216 -0.11696,-0.0032 -0.25467,-0.0083 -0.30602,-0.01141 -0.0514,-0.0031 -0.40846,-0.01581 -0.79358,-0.02829 -0.38511,-0.01248 -0.70384,-0.02615 -0.70828,-0.03038 -0.004,-0.0042 0.44252,-0.496545 0.99325,-1.094031 1.12637,-1.222003 2.25004,-2.443743 2.45174,-2.665712 0.14508,-0.159665 0.11216,-0.204561 -0.0433,-0.05903 -0.0522,0.04884 -0.33291,0.268816 -0.62389,0.488841 -0.29098,0.220026 -0.6831,0.51792 -0.87138,0.661987 -0.18828,0.144067 -0.46837,0.358074 -0.62241,0.475572 -0.15405,0.117497 -0.35717,0.273297 -0.45138,0.346221 -0.0942,0.07292 -0.43615,0.335652 -0.75989,0.58384 -0.32374,0.248187 -0.66084,0.507266 -0.74911,0.575732 -0.15015,0.116449 -0.4627,0.355405 -1.36953,1.047047 -0.2054,0.156657 -0.37812,0.296753 -0.38383,0.311326 -0.006,0.01457 0.0643,0.02912 0.15561,0.03233 0.0913,0.0032 0.20099,0.0074 0.24378,0.0093 0.0428,0.0019 0.45398,0.01494 0.91376,0.02891 0.45979,0.01397 0.87008,0.03452 0.91178,0.04567 0.0808,0.0216 0.11751,-0.01418 -0.72076,0.701779 -0.18278,0.15611 -1.83645,1.577639 -2.54827,2.190549 -0.58316,0.502124 -0.66308,0.570274 -0.76608,0.65324 -0.0428,0.03447 -0.0708,0.06938 -0.0622,0.07757 0.0149,0.01429 0.39667,0.0334 1.36931,0.06853 1.3487,0.04872 2.0973,0.07937 2.10409,0.08616 0.004,0.0042 -0.87363,0.892497 -1.95073,1.973996 -1.0771,1.081498 -1.95836,1.974113 -1.95836,1.983587 0,0.03805 0.0455,0.0091 0.27898,-0.177278 z"
       id="path1491" /></g></svg>
